<?xml version="1.0"?>
<svg width="40" height="41" xmlns="http://www.w3.org/2000/svg" xmlns:svg="http://www.w3.org/2000/svg">
 <defs>
  <clipPath id="clip0_2_2">
   <rect fill="white" height="41" id="svg_1" width="40"/>
  </clipPath>
 </defs>
 <g class="layer">
  <title>Layer 1</title>
  <g clip-path="url(#clip0_2_2)" id="svg_2">
   <path d="m33.53,22.7c0,2.88 -1.14,5.63 -3.18,7.66c-2.03,2.04 -4.79,3.18 -7.67,3.18c-2.4,0 -4.63,-0.79 -6.43,-2.11l15.17,-15.15c1.32,1.79 2.11,4.02 2.11,6.42z" fill="#faf4fb" id="svg_3"/>
   <path d="m33.39,30.35l2.27,-5.46l4.34,5l-6.61,0.46z" fill="#faf4fb" id="svg_4"/>
   <path d="m35.66,20.57l-2.25,-5.47l6.59,0.47l-4.34,5z" fill="#faf4fb" id="svg_5"/>
   <path d="m24.85,35.67l5.47,-2.27l-0.48,6.6l-4.99,-4.33z" fill="#faf4fb" id="svg_6"/>
   <path d="m15.05,33.4l5.46,2.27l-4.99,4.31l-0.47,-6.58z" fill="#faf4fb" id="svg_7"/>
   <path d="m33.67,3l2.82,2.82l-30.71,30.67l-2.82,-2.81l30.71,-30.68z" fill="#faf4fb" id="svg_8"/>
   <path clip-rule="evenodd" d="m18.56,5.95l2.92,1.84l-1.01,-3.29l2.67,-2.23l-3.42,-0.06l-1.32,-3.21l-1.14,3.25l-3.45,0.24l2.74,2.09l-0.83,3.35l2.84,-1.98zm-5.88,7.51l2.29,1.44l-0.79,-2.58l2.07,-1.72l-2.68,-0.05l-1.01,-2.51l-0.88,2.54l-2.69,0.18l2.15,1.64l-0.67,2.6l2.21,-1.54z" fill="#faf4fb" fill-rule="evenodd" id="svg_9"/>
   <path d="m10.85,0.04c-3.53,2.27 -5.92,6.27 -5.92,10.84c0,4.57 2.39,8.57 5.98,10.84c-6.06,0 -10.91,-4.85 -10.91,-10.84c0,-2.87 1.14,-5.63 3.18,-7.66c2.03,-2.03 4.79,-3.18 7.67,-3.18z" fill="#faf4fb" id="svg_10"/>
  </g>
 </g>
</svg>